<svg xmlns="http://www.w3.org/2000/svg" xmlns:xlink="http://www.w3.org/1999/xlink" version="1.1" x="0px" y="0px" viewBox="0 0 512 640" style="enable-background:new 0 0 512 512;" xml:space="preserve"><g><g><g><path d="M137.609,253.355c-0.786,0-1.574-0.132-2.332-0.4C98.496,239.958,73.783,205.014,73.783,166     c0-50.849,41.368-92.217,92.217-92.217c20.865,0,41.308,7.167,57.564,20.182c16,12.81,27.411,30.792,32.13,50.631     c0.479,2.014,0.042,4.136-1.193,5.797s-3.142,2.69-5.208,2.811c-52.216,3.054-96.28,42.708-104.776,94.289     c-0.336,2.044-1.561,3.833-3.344,4.888C140.081,253.026,138.849,253.355,137.609,253.355z M166,87.783     c-43.129,0-78.217,35.088-78.217,78.217c0,30.356,17.642,57.81,44.642,70.65c5.896-24.801,19.315-47.563,38.361-64.809     c19.207-17.392,43.439-28.509,69.008-31.801C228.927,108.9,199.644,87.783,166,87.783z"/></g><g><path d="M376,493H136c-64.514,0-117-52.486-117-117c0-62.227,48.829-113.263,110.183-116.804c0.25-4.679,0.759-9.358,1.52-13.979     c4.629-28.102,18.864-54.161,40.083-73.376c21.369-19.351,48.959-30.933,77.689-32.614c2.585-0.15,5.117-0.227,7.525-0.227     c67.745,0,123.272,53.319,126.82,120.196C444.175,262.738,493,313.773,493,376C493,440.514,440.514,493,376,493z M256,153     c-2.167,0-4.361,0.067-6.708,0.204c-52.216,3.054-96.28,42.708-104.775,94.289C143.51,253.604,143,259.831,143,266     c0,3.866-3.134,7-7,7c-56.794,0-103,46.206-103,103s46.206,103,103,103h240c56.794,0,103-46.206,103-103s-46.206-103-103-103     c-3.866,0-7-3.134-7-7C369,203.691,318.309,153,256,153z"/></g><g><path d="M166,63.435c-3.866,0-7-3.134-7-7V26c0-3.866,3.134-7,7-7s7,3.134,7,7v30.435C173,60.301,169.866,63.435,166,63.435z"/></g><g><g><path d="M252.849,106.197c-2.099,0-4.175-0.94-5.553-2.733c-2.357-3.064-1.784-7.459,1.281-9.816L272.7,75.093      c3.063-2.357,7.459-1.785,9.816,1.281c2.356,3.064,1.783,7.459-1.281,9.816l-24.124,18.556      C255.84,105.724,254.338,106.197,252.849,106.197z"/></g><g><path d="M55.038,258.359c-2.099,0-4.175-0.94-5.553-2.732c-2.357-3.064-1.784-7.459,1.28-9.816l24.123-18.556      c3.063-2.357,7.459-1.784,9.816,1.28s1.784,7.459-1.28,9.816l-24.123,18.556C58.029,257.886,56.528,258.359,55.038,258.359z"/></g></g><g><path d="M56.435,173H26c-3.866,0-7-3.134-7-7s3.134-7,7-7h30.435c3.866,0,7,3.134,7,7S60.301,173,56.435,173z"/></g><g><path d="M88.526,95.526c-1.792,0-3.583-0.684-4.95-2.05L62.055,71.955c-2.734-2.733-2.734-7.166,0-9.899     c2.733-2.733,7.166-2.733,9.899,0l21.521,21.521c2.734,2.733,2.734,7.166,0,9.899C92.109,94.842,90.317,95.526,88.526,95.526z"/></g><g><path d="M285.996,353.002c-3.064,0-5.877-2.027-6.739-5.124c-1.037-3.724,1.141-7.584,4.865-8.621     c68.429-19.061,84.986-74.616,85.146-75.175c1.061-3.719,4.939-5.872,8.65-4.814c3.718,1.06,5.873,4.933,4.814,8.65     c-0.188,0.661-4.776,16.408-18.801,34.714c-12.853,16.777-36.48,39.089-76.054,50.111     C287.25,352.918,286.618,353.002,285.996,353.002z"/></g></g></g><text x="0" y="527" fill="#000000" font-size="5px" font-weight="bold" font-family="'Helvetica Neue', Helvetica, Arial-Unicode, Arial, Sans-serif">Created by Flatart</text><text x="0" y="532" fill="#000000" font-size="5px" font-weight="bold" font-family="'Helvetica Neue', Helvetica, Arial-Unicode, Arial, Sans-serif">from the Noun Project</text></svg>