<svg xmlns="http://www.w3.org/2000/svg" xmlns:xlink="http://www.w3.org/1999/xlink" version="1.1" x="0px" y="0px" viewBox="0 0 512 640" style="enable-background:new 0 0 512 512;" xml:space="preserve"><g><g><g><path d="M376,433H136c-64.514,0-117-52.486-117-117c0-62.226,48.826-113.262,110.18-116.804C132.728,132.319,188.254,79,256,79     c67.745,0,123.272,53.319,126.82,120.196C444.175,202.738,493,253.774,493,316C493,380.514,440.514,433,376,433z M256,93     c-62.309,0-113,50.691-113,113c0,3.866-3.134,7-7,7c-56.794,0-103,46.206-103,103s46.206,103,103,103h240     c56.794,0,103-46.206,103-103s-46.206-103-103-103c-3.866,0-7-3.134-7-7C369,143.691,318.309,93,256,93z"/></g><g><path d="M186,203c-3.866,0-7-3.134-7-7c0-12.008,7.569-28.499,19.285-42.012C212.254,137.875,229.2,129,246,129     c3.866,0,7,3.134,7,7s-3.134,7-7,7c-17.107,0-30.61,12.63-37.137,20.159C197.964,175.73,193,188.995,193,196     C193,199.866,189.866,203,186,203z"/></g><g><path d="M285.994,313.002c-3.164,0-6.032-2.159-6.802-5.371c-0.9-3.76,1.417-7.538,5.177-8.438     c34.287-8.213,58.943-26.475,73.285-54.276c10.688-20.722,11.344-38.941,11.349-39.123c0.115-3.865,3.319-6.877,7.204-6.791     c3.864,0.114,6.904,3.339,6.79,7.204c-0.025,0.872-0.77,21.61-12.9,45.127c-11.202,21.716-34.602,50.008-82.466,61.474     C287.083,312.938,286.534,313.002,285.994,313.002z"/></g></g></g><text x="0" y="527" fill="#000000" font-size="5px" font-weight="bold" font-family="'Helvetica Neue', Helvetica, Arial-Unicode, Arial, Sans-serif">Created by Flatart</text><text x="0" y="532" fill="#000000" font-size="5px" font-weight="bold" font-family="'Helvetica Neue', Helvetica, Arial-Unicode, Arial, Sans-serif">from the Noun Project</text></svg>