<svg xmlns="http://www.w3.org/2000/svg" xmlns:xlink="http://www.w3.org/1999/xlink" version="1.1" x="0px" y="0px" viewBox="0 0 512 640" style="enable-background:new 0 0 512 512;" xml:space="preserve"><g><g><g><path d="M376,373H136c-64.514,0-117-52.486-117-117c0-62.226,48.826-113.262,110.18-116.804C132.728,72.319,188.254,19,256,19     c67.745,0,123.272,53.319,126.82,120.196C444.175,142.738,493,193.774,493,256C493,320.514,440.514,373,376,373z M256,33     c-62.309,0-113,50.691-113,113c0,3.866-3.134,7-7,7c-56.794,0-103,46.206-103,103s46.206,103,103,103h240     c56.794,0,103-46.206,103-103s-46.206-103-103-103c-3.866,0-7-3.134-7-7C369,83.691,318.309,33,256,33z"/></g><g><path d="M186,143c-3.866,0-7-3.134-7-7c0-12.008,7.569-28.499,19.285-42.012C212.254,77.875,229.2,69,246,69c3.866,0,7,3.134,7,7     s-3.134,7-7,7c-17.107,0-30.61,12.63-37.137,20.159C197.964,115.73,193,128.995,193,136C193,139.866,189.866,143,186,143z"/></g><g><path d="M285.994,253.001c-3.164,0-6.032-2.159-6.802-5.371c-0.9-3.76,1.417-7.538,5.177-8.438     c34.287-8.213,58.943-26.474,73.285-54.276c10.688-20.722,11.344-38.941,11.349-39.123c0.115-3.865,3.319-6.901,7.204-6.791     c3.864,0.114,6.904,3.339,6.79,7.204c-0.025,0.872-0.77,21.61-12.9,45.127c-11.202,21.715-34.602,50.008-82.466,61.474     C287.083,252.938,286.534,253.001,285.994,253.001z"/></g><g><g><path d="M76,493c-1.792,0-3.583-0.684-4.95-2.05c-2.734-2.734-2.734-7.166,0-9.9l70-70c2.733-2.732,7.166-2.732,9.899,0      c2.734,2.734,2.734,7.166,0,9.9l-70,70C79.583,492.316,77.792,493,76,493z"/></g><g><path d="M166,493c-1.792,0-3.583-0.684-4.95-2.05c-2.734-2.734-2.734-7.166,0-9.9l70-70c2.733-2.732,7.166-2.732,9.899,0      c2.734,2.734,2.734,7.166,0,9.9l-70,70C169.583,492.316,167.792,493,166,493z"/></g><g><path d="M256,493c-1.792,0-3.583-0.684-4.95-2.05c-2.734-2.734-2.734-7.166,0-9.9l70-70c2.734-2.732,7.166-2.732,9.9,0      c2.733,2.734,2.733,7.166,0,9.9l-70,70C259.583,492.316,257.791,493,256,493z"/></g><g><path d="M346,493c-1.791,0-3.583-0.684-4.95-2.05c-2.733-2.734-2.733-7.166,0-9.9l70-70c2.734-2.732,7.166-2.732,9.9,0      c2.733,2.734,2.733,7.166,0,9.9l-70,70C349.583,492.316,347.791,493,346,493z"/></g></g></g></g><text x="0" y="527" fill="#000000" font-size="5px" font-weight="bold" font-family="'Helvetica Neue', Helvetica, Arial-Unicode, Arial, Sans-serif">Created by Flatart</text><text x="0" y="532" fill="#000000" font-size="5px" font-weight="bold" font-family="'Helvetica Neue', Helvetica, Arial-Unicode, Arial, Sans-serif">from the Noun Project</text></svg>