<svg xmlns="http://www.w3.org/2000/svg" xmlns:xlink="http://www.w3.org/1999/xlink" version="1.1" x="0px" y="0px" viewBox="0 0 512 640" style="enable-background:new 0 0 512 512;" xml:space="preserve"><g><g><g><g><g><path d="M256,193c-3.866,0-7-3.134-7-7V26c0-3.866,3.134-7,7-7s7,3.134,7,7v160C263,189.866,259.866,193,256,193z"/></g><g><g><path d="M256,73c-1.792,0-3.583-0.684-4.95-2.05l-40-40c-2.734-2.733-2.734-7.166,0-9.899c2.733-2.733,7.166-2.733,9.899,0        l40,40c2.733,2.733,2.733,7.166,0,9.899C259.583,72.316,257.791,73,256,73z"/></g><g><path d="M256,73c-1.792,0-3.583-0.684-4.95-2.05c-2.734-2.733-2.734-7.166,0-9.899l40-40c2.734-2.733,7.166-2.733,9.9,0        c2.733,2.733,2.733,7.166,0,9.899l-40,40C259.583,72.316,257.791,73,256,73z"/></g></g><g><g><path d="M256,133c-1.792,0-3.583-0.684-4.95-2.05l-40-40c-2.734-2.733-2.734-7.166,0-9.899c2.733-2.733,7.166-2.733,9.899,0        l40,40c2.733,2.733,2.733,7.166,0,9.899C259.583,132.316,257.791,133,256,133z"/></g><g><path d="M256,133c-1.792,0-3.583-0.684-4.95-2.05c-2.734-2.733-2.734-7.166,0-9.899l40-40c2.734-2.733,7.166-2.733,9.9,0        c2.733,2.733,2.733,7.166,0,9.899l-40,40C259.583,132.316,257.791,133,256,133z"/></g></g></g><g><g><path d="M256,493c-3.866,0-7-3.134-7-7V326c0-3.866,3.134-7,7-7s7,3.134,7,7v160C263,489.866,259.866,493,256,493z"/></g><g><g><path d="M216,493c-1.792,0-3.583-0.684-4.95-2.05c-2.734-2.734-2.734-7.166,0-9.9l40-40c2.734-2.731,7.166-2.732,9.9,0        c2.733,2.734,2.733,7.166,0,9.9l-40,40C219.583,492.316,217.792,493,216,493z"/></g><g><path d="M296,493c-1.791,0-3.583-0.684-4.95-2.05l-40-40c-2.734-2.734-2.734-7.166,0-9.9c2.734-2.731,7.166-2.732,9.9,0l40,40        c2.733,2.734,2.733,7.166,0,9.9C299.583,492.316,297.791,493,296,493z"/></g></g><g><g><path d="M216,433c-1.792,0-3.583-0.684-4.95-2.05c-2.734-2.734-2.734-7.166,0-9.9l40-40c2.734-2.731,7.166-2.731,9.9,0        c2.733,2.734,2.733,7.166,0,9.9l-40,40C219.583,432.316,217.792,433,216,433z"/></g><g><path d="M296,433c-1.791,0-3.583-0.684-4.95-2.05l-40-40c-2.734-2.734-2.734-7.166,0-9.9c2.734-2.731,7.166-2.731,9.9,0l40,40        c2.733,2.734,2.733,7.166,0,9.9C299.583,432.316,297.791,433,296,433z"/></g></g></g></g><g><g><g><path d="M305.497,213.502c-1.792,0-3.583-0.683-4.95-2.05c-2.733-2.734-2.733-7.166,0-9.899L413.685,88.416       c2.735-2.733,7.167-2.733,9.9,0c2.733,2.734,2.733,7.166,0,9.899L310.447,211.452       C309.08,212.818,307.288,213.502,305.497,213.502z"/></g><g><g><path d="M390.351,128.65c-3.866,0-7-3.134-7-7V65.081c0-3.866,3.134-7,7-7s7,3.134,7,7v56.569        C397.351,125.516,394.217,128.65,390.351,128.65z"/></g><g><path d="M446.919,128.65h-56.568c-3.866,0-7-3.134-7-7s3.134-7,7-7h56.568c3.866,0,7,3.134,7,7S450.785,128.65,446.919,128.65        z"/></g></g><g><g><path d="M347.924,171.076c-3.866,0-7-3.134-7-7v-56.568c0-3.866,3.134-7,7-7s7,3.134,7,7v56.568        C354.924,167.942,351.79,171.076,347.924,171.076z"/></g><g><path d="M404.492,171.076h-56.568c-3.866,0-7-3.134-7-7s3.134-7,7-7h56.568c3.866,0,7,3.134,7,7        S408.358,171.076,404.492,171.076z"/></g></g></g><g><g><path d="M93.365,425.635c-1.792,0-3.583-0.684-4.95-2.05c-2.734-2.734-2.734-7.166,0-9.9l113.137-113.138       c2.733-2.732,7.166-2.732,9.899,0c2.734,2.734,2.734,7.166,0,9.9L98.315,423.585C96.948,424.951,95.157,425.635,93.365,425.635       z"/></g><g><g><path d="M121.65,397.351H65.081c-3.866,0-7-3.134-7-7s3.134-7,7-7h56.569c3.866,0,7,3.134,7,7S125.516,397.351,121.65,397.351        z"/></g><g><path d="M121.65,453.919c-3.866,0-7-3.134-7-7v-56.568c0-3.866,3.134-7,7-7s7,3.134,7,7v56.568        C128.65,450.785,125.516,453.919,121.65,453.919z"/></g></g><g><g><path d="M164.076,354.924h-56.568c-3.866,0-7-3.134-7-7s3.134-7,7-7h56.568c3.866,0,7,3.134,7,7        S167.942,354.924,164.076,354.924z"/></g><g><path d="M164.076,411.492c-3.866,0-7-3.134-7-7v-56.568c0-3.866,3.134-7,7-7s7,3.134,7,7v56.568        C171.076,408.358,167.942,411.492,164.076,411.492z"/></g></g></g></g><g><g><g><path d="M418.635,425.635c-1.791,0-3.583-0.684-4.95-2.05L300.547,310.447c-2.733-2.734-2.733-7.166,0-9.9       c2.734-2.732,7.166-2.732,9.9,0l113.138,113.138c2.733,2.734,2.733,7.166,0,9.9       C422.218,424.951,420.426,425.635,418.635,425.635z"/></g><g><g><path d="M446.919,397.351h-56.568c-3.866,0-7-3.134-7-7s3.134-7,7-7h56.568c3.866,0,7,3.134,7,7        S450.785,397.351,446.919,397.351z"/></g><g><path d="M390.351,453.919c-3.866,0-7-3.134-7-7v-56.568c0-3.866,3.134-7,7-7s7,3.134,7,7v56.568        C397.351,450.785,394.217,453.919,390.351,453.919z"/></g></g><g><g><path d="M404.492,354.924h-56.568c-3.866,0-7-3.134-7-7s3.134-7,7-7h56.568c3.866,0,7,3.134,7,7        S408.358,354.924,404.492,354.924z"/></g><g><path d="M347.924,411.492c-3.866,0-7-3.134-7-7v-56.568c0-3.866,3.134-7,7-7s7,3.134,7,7v56.568        C354.924,408.358,351.79,411.492,347.924,411.492z"/></g></g></g><g><g><path d="M206.502,213.502c-1.792,0-3.583-0.684-4.95-2.05L88.416,98.315c-2.734-2.733-2.734-7.166,0-9.899       c2.733-2.733,7.166-2.733,9.899,0l113.137,113.137c2.734,2.733,2.734,7.166,0,9.899       C210.085,212.818,208.293,213.502,206.502,213.502z"/></g><g><g><path d="M121.65,128.65c-3.866,0-7-3.134-7-7V65.081c0-3.866,3.134-7,7-7s7,3.134,7,7v56.569        C128.65,125.516,125.516,128.65,121.65,128.65z"/></g><g><path d="M121.65,128.65H65.081c-3.866,0-7-3.134-7-7s3.134-7,7-7h56.569c3.866,0,7,3.134,7,7S125.516,128.65,121.65,128.65z"/></g></g><g><g><path d="M164.076,171.076c-3.866,0-7-3.134-7-7v-56.568c0-3.866,3.134-7,7-7s7,3.134,7,7v56.568        C171.076,167.942,167.942,171.076,164.076,171.076z"/></g><g><path d="M164.076,171.076h-56.568c-3.866,0-7-3.134-7-7s3.134-7,7-7h56.568c3.866,0,7,3.134,7,7        S167.942,171.076,164.076,171.076z"/></g></g></g></g><g><g><g><path d="M486,263H326c-3.866,0-7-3.134-7-7s3.134-7,7-7h160c3.866,0,7,3.134,7,7S489.866,263,486,263z"/></g><g><g><path d="M446,263c-1.791,0-3.583-0.684-4.95-2.05c-2.733-2.734-2.733-7.167,0-9.9l40-40c2.734-2.733,7.166-2.733,9.9,0        c2.733,2.733,2.733,7.166,0,9.899l-40,40C449.583,262.316,447.791,263,446,263z"/></g><g><path d="M486,303c-1.791,0-3.583-0.684-4.95-2.05l-40-40c-2.733-2.734-2.733-7.167,0-9.9c2.734-2.733,7.166-2.733,9.9,0l40,40        c2.733,2.734,2.733,7.166,0,9.9C489.583,302.316,487.791,303,486,303z"/></g></g><g><g><path d="M386,263c-1.791,0-3.583-0.684-4.95-2.05c-2.733-2.734-2.733-7.167,0-9.9l40-40c2.734-2.733,7.166-2.733,9.9,0        c2.733,2.733,2.733,7.166,0,9.899l-40,40C389.583,262.316,387.791,263,386,263z"/></g><g><path d="M426,303c-1.791,0-3.583-0.684-4.95-2.05l-40-40c-2.733-2.734-2.733-7.167,0-9.9c2.734-2.733,7.166-2.733,9.9,0l40,40        c2.733,2.734,2.733,7.166,0,9.9C429.583,302.316,427.791,303,426,303z"/></g></g></g><g><g><path d="M186,263H26c-3.866,0-7-3.134-7-7s3.134-7,7-7h160c3.866,0,7,3.134,7,7S189.866,263,186,263z"/></g><g><g><path d="M66,263c-1.792,0-3.583-0.684-4.95-2.05l-40-40c-2.734-2.733-2.734-7.166,0-9.899c2.733-2.733,7.166-2.733,9.899,0        l40,40c2.734,2.733,2.734,7.166,0,9.9C69.583,262.316,67.792,263,66,263z"/></g><g><path d="M26,303c-1.792,0-3.583-0.684-4.95-2.05c-2.734-2.734-2.734-7.166,0-9.9l40-40c2.733-2.733,7.166-2.733,9.899,0        c2.734,2.733,2.734,7.166,0,9.9l-40,40C29.583,302.316,27.792,303,26,303z"/></g></g><g><g><path d="M126,263c-1.792,0-3.583-0.684-4.95-2.05l-40-40c-2.734-2.733-2.734-7.166,0-9.899c2.733-2.733,7.166-2.733,9.899,0        l40,40c2.734,2.733,2.734,7.166,0,9.9C129.583,262.316,127.792,263,126,263z"/></g><g><path d="M86,303c-1.792,0-3.583-0.684-4.95-2.05c-2.734-2.734-2.734-7.166,0-9.9l40-40c2.733-2.733,7.166-2.733,9.899,0        c2.734,2.733,2.734,7.166,0,9.9l-40,40C89.583,302.316,87.792,303,86,303z"/></g></g></g></g><g><path d="M256,333c-42.458,0-77-34.542-77-77s34.542-77,77-77s77,34.542,77,77S298.458,333,256,333z M256,193     c-34.738,0-63,28.262-63,63s28.262,63,63,63s63-28.262,63-63S290.738,193,256,193z"/></g></g></g><text x="0" y="527" fill="#000000" font-size="5px" font-weight="bold" font-family="'Helvetica Neue', Helvetica, Arial-Unicode, Arial, Sans-serif">Created by Flatart</text><text x="0" y="532" fill="#000000" font-size="5px" font-weight="bold" font-family="'Helvetica Neue', Helvetica, Arial-Unicode, Arial, Sans-serif">from the Noun Project</text></svg>