<svg xmlns="http://www.w3.org/2000/svg" xmlns:xlink="http://www.w3.org/1999/xlink" version="1.1" x="0px" y="0px" viewBox="0 0 512 640" style="enable-background:new 0 0 512 512;" xml:space="preserve"><g><g><g><path d="M410.849,215.424c-3.866,0-7-3.134-7-7c0-13.045-17.479-38.606-38.605-38.606c-3.866,0-7-3.134-7-7s3.134-7,7-7     c29.038,0,52.605,31.832,52.605,52.606C417.849,212.29,414.715,215.424,410.849,215.424z"/></g><g><path d="M376,306.636h-89.934c-3.031,0-5.719-1.951-6.656-4.834l-14.049-43.177l-14.046,43.177     c-0.938,2.883-3.625,4.834-6.657,4.834H136c-59,0-107-46.98-107-104.727c0-55.896,45.125-101.819,101.595-104.587     c7.888-21.654,22.415-40.991,41.307-54.849C192.835,27.117,217.767,19,244,19c26.231,0,51.161,8.116,72.095,23.47     c18.853,13.829,33.359,33.113,41.26,54.712H376c59,0,107,46.98,107,104.727C483,259.655,435,306.636,376,306.636z      M291.15,292.636H376c51.28,0,93-40.7,93-90.727s-41.72-90.727-93-90.727h-23.657c-3.058,0-5.761-1.984-6.678-4.9     C331.882,62.45,291.025,33,244,33c-47.03,0-87.887,29.453-101.667,73.289c-0.914,2.909-3.606,4.891-6.654,4.901     C84.575,111.36,43,152.056,43,201.909c0,50.027,41.72,90.727,93,90.727h103.575l19.13-58.801     c0.938-2.883,3.625-4.834,6.656-4.834s5.719,1.951,6.656,4.834L291.15,292.636z"/></g><g><path d="M301.41,493C301.409,493,301.409,493,301.41,493c-3.035-0.001-5.723-1.955-6.658-4.841l-30.304-93.437H216     c-2.241,0-4.347-1.073-5.664-2.887c-1.317-1.813-1.686-4.147-0.993-6.279l49.362-151.722c0.938-2.883,3.625-4.834,6.656-4.834     s5.719,1.951,6.656,4.834l30.302,93.135h48.453c2.24,0,4.346,1.072,5.663,2.885c1.316,1.813,1.687,4.146,0.995,6.277     l-49.362,152.031C307.132,491.047,304.443,493,301.41,493z M225.639,380.723h43.898c3.034,0,5.723,1.954,6.658,4.841     l25.219,77.758l39.726-122.353h-43.904c-3.031,0-5.719-1.951-6.656-4.834l-25.218-77.51L225.639,380.723z"/></g><g><path d="M198.676,183c-0.175,0-0.351-0.007-0.528-0.02c-38.142-2.846-54.966-24.438-62.363-42.05     c-7.827-18.636-6.76-36.451-6.711-37.2c0.253-3.857,3.586-6.781,7.444-6.526c3.854,0.253,6.774,3.58,6.527,7.433     c-0.153,2.519-2.944,59.972,56.145,64.381c3.855,0.288,6.747,3.646,6.459,7.501C205.375,180.199,202.305,183,198.676,183z"/></g></g></g><text x="0" y="527" fill="#000000" font-size="5px" font-weight="bold" font-family="'Helvetica Neue', Helvetica, Arial-Unicode, Arial, Sans-serif">Created by Flatart</text><text x="0" y="532" fill="#000000" font-size="5px" font-weight="bold" font-family="'Helvetica Neue', Helvetica, Arial-Unicode, Arial, Sans-serif">from the Noun Project</text></svg>