<svg xmlns="http://www.w3.org/2000/svg" xmlns:xlink="http://www.w3.org/1999/xlink" version="1.1" x="0px" y="0px" viewBox="0 0 512 640" style="enable-background:new 0 0 512 512;" xml:space="preserve"><g><g><g><path d="M256,403c-81.056,0-147-65.944-147-147s65.944-147,147-147s147,65.944,147,147S337.056,403,256,403z M256,123     c-73.336,0-133,59.664-133,133c0,73.337,59.664,133,133,133c73.337,0,133-59.663,133-133C389,182.664,329.337,123,256,123z"/></g><g><path d="M166,253c-3.866,0-7-3.134-7-7c0-16.396,9.886-38.177,25.186-55.49C202.143,170.19,224.096,159,246,159     c3.866,0,7,3.134,7,7s-3.134,7-7,7c-24.063,0-42.484,16.779-51.323,26.781C181.711,214.453,173,233.026,173,246     C173,249.866,169.866,253,166,253z"/></g><g><g><path d="M256,83c-3.866,0-7-3.134-7-7V26c0-3.866,3.134-7,7-7s7,3.134,7,7v50C263,79.866,259.866,83,256,83z"/></g><g><path d="M256,493c-3.866,0-7-3.134-7-7v-50c0-3.866,3.134-7,7-7s7,3.134,7,7v50C263,489.866,259.866,493,256,493z"/></g></g><g><g><path d="M383.279,135.721c-1.791,0-3.583-0.684-4.95-2.05c-2.733-2.733-2.733-7.166,0-9.899l35.355-35.356      c2.734-2.733,7.166-2.733,9.9,0c2.733,2.733,2.733,7.166,0,9.899l-35.355,35.356      C386.862,135.038,385.07,135.721,383.279,135.721z"/></g><g><path d="M93.365,425.635c-1.792,0-3.583-0.684-4.95-2.05c-2.734-2.734-2.734-7.166,0-9.9l35.356-35.355      c2.734-2.732,7.167-2.731,9.899,0c2.734,2.734,2.734,7.166,0,9.9l-35.356,35.355C96.948,424.951,95.156,425.635,93.365,425.635z      "/></g></g><g><g><path d="M486,263h-50c-3.866,0-7-3.134-7-7s3.134-7,7-7h50c3.866,0,7,3.134,7,7S489.866,263,486,263z"/></g><g><path d="M76,263H26c-3.866,0-7-3.134-7-7s3.134-7,7-7h50c3.866,0,7,3.134,7,7S79.866,263,76,263z"/></g></g><g><g><path d="M418.635,425.635c-1.791,0-3.583-0.684-4.95-2.05L378.33,388.23c-2.733-2.734-2.733-7.166,0-9.9      c2.734-2.732,7.166-2.732,9.9,0l35.355,35.355c2.733,2.734,2.733,7.166,0,9.9C422.218,424.951,420.426,425.635,418.635,425.635z      "/></g><g><path d="M128.721,135.721c-1.792,0-3.583-0.684-4.95-2.05L88.416,98.315c-2.734-2.733-2.734-7.166,0-9.899      c2.733-2.733,7.166-2.733,9.899,0l35.356,35.356c2.734,2.733,2.734,7.166,0,9.899      C132.304,135.038,130.513,135.721,128.721,135.721z"/></g></g></g></g><text x="0" y="527" fill="#000000" font-size="5px" font-weight="bold" font-family="'Helvetica Neue', Helvetica, Arial-Unicode, Arial, Sans-serif">Created by Flatart</text><text x="0" y="532" fill="#000000" font-size="5px" font-weight="bold" font-family="'Helvetica Neue', Helvetica, Arial-Unicode, Arial, Sans-serif">from the Noun Project</text></svg>