<svg xmlns="http://www.w3.org/2000/svg" xmlns:xlink="http://www.w3.org/1999/xlink" version="1.1" x="0px" y="0px" viewBox="0 0 512 640" style="enable-background:new 0 0 512 512;" xml:space="preserve"><g><g><g><g><g><g><path d="M261,113c-3.866,0-7-3.134-7-7s3.134-7,7-7c18.196,0,33-14.804,33-33s-14.804-33-33-33c-3.866,0-7-3.134-7-7        s3.134-7,7-7c25.916,0,47,21.084,47,47S286.916,113,261,113z"/></g><g><path d="M261,113H81c-3.866,0-7-3.134-7-7s3.134-7,7-7h180c3.866,0,7,3.134,7,7S264.866,113,261,113z"/></g></g><g><g><path d="M358.283,160.273c-3.866,0-7-3.134-7-7s3.134-7,7-7c27.965,0,50.717-25.407,50.717-56.636        C409,58.407,386.248,33,358.283,33c-3.866,0-7-3.134-7-7s3.134-7,7-7C393.968,19,423,50.688,423,89.637        S393.968,160.273,358.283,160.273z"/></g><g><path d="M358.283,160.273H26c-3.866,0-7-3.134-7-7s3.134-7,7-7h332.283c3.866,0,7,3.134,7,7S362.149,160.273,358.283,160.273z        "/></g></g></g><g><g><g><path d="M331,493c-3.866,0-7-3.134-7-7s3.134-7,7-7c18.196,0,33-14.804,33-33s-14.804-33-33-33c-3.866,0-7-3.134-7-7        s3.134-7,7-7c25.916,0,47,21.084,47,47S356.916,493,331,493z"/></g><g><path d="M331,413H151c-3.866,0-7-3.134-7-7s3.134-7,7-7h180c3.866,0,7,3.134,7,7S334.866,413,331,413z"/></g></g><g><g><path d="M428.283,493c-3.866,0-7-3.134-7-7s3.134-7,7-7C456.248,479,479,453.594,479,422.364s-22.752-56.637-50.717-56.637        c-3.866,0-7-3.134-7-7s3.134-7,7-7c35.685,0,64.717,31.688,64.717,70.637S463.968,493,428.283,493z"/></g><g><path d="M428.283,365.728H96c-3.866,0-7-3.134-7-7s3.134-7,7-7h332.283c3.866,0,7,3.134,7,7S432.149,365.728,428.283,365.728z        "/></g></g></g><g><g><path d="M417.924,313c-3.866,0-7-3.134-7-7s3.134-7,7-7C451.602,299,479,273.593,479,242.364C479,210.74,449.561,183,416,183       c-3.866,0-7-3.134-7-7s3.134-7,7-7c41.019,0,77,34.282,77,73.364C493,281.313,459.321,313,417.924,313z"/></g><g><path d="M417.924,313H26c-3.866,0-7-3.134-7-7s3.134-7,7-7h391.924c3.866,0,7,3.134,7,7S421.79,313,417.924,313z"/></g></g></g><g><path d="M366,233c-3.866,0-7-3.134-7-7c0-31.43,25.57-57,57-57c3.866,0,7,3.134,7,7s-3.134,7-7,7c-23.71,0-43,19.29-43,43     C373,229.866,369.866,233,366,233z"/></g></g></g><text x="0" y="527" fill="#000000" font-size="5px" font-weight="bold" font-family="'Helvetica Neue', Helvetica, Arial-Unicode, Arial, Sans-serif">Created by Flatart</text><text x="0" y="532" fill="#000000" font-size="5px" font-weight="bold" font-family="'Helvetica Neue', Helvetica, Arial-Unicode, Arial, Sans-serif">from the Noun Project</text></svg>